<!--?xml version="1.0" encoding="UTF-8" standalone="no"?-->
<!-- Created with Inkscape (http://www.inkscape.org/) -->

<svg xmlns:dc="http://purl.org/dc/elements/1.1/" xmlns:cc="http://creativecommons.org/ns#" xmlns:rdf="http://www.w3.org/1999/02/22-rdf-syntax-ns#" xmlns:svg="http://www.w3.org/2000/svg" xmlns="http://www.w3.org/2000/svg" xmlns:sodipodi="http://sodipodi.sourceforge.net/DTD/sodipodi-0.dtd" xmlns:inkscape="http://www.inkscape.org/namespaces/inkscape" width="23.353115mm" height="7.4506664mm" viewBox="0 0 23.353115 7.4506664" version="1.1" id="svg8" inkscape:version="0.92.4 (5da689c313, 2019-01-14)" sodipodi:docname="SHINYA2.svg" style="">
  <defs id="defs2"></defs>
  <sodipodi:namedview id="base" pagecolor="#ffffff" bordercolor="#666666" borderopacity="1.0" inkscape:pageopacity="0.0" inkscape:pageshadow="2" inkscape:zoom="11.2" inkscape:cx="19.373129" inkscape:cy="2.0488955" inkscape:document-units="mm" inkscape:current-layer="text3957" showgrid="false" inkscape:window-width="1680" inkscape:window-height="988" inkscape:window-x="-8" inkscape:window-y="-8" inkscape:window-maximized="1" fit-margin-top="0" fit-margin-left="0" fit-margin-right="0" fit-margin-bottom="0"></sodipodi:namedview>
  <metadata id="metadata5">
    <rdf:rdf>
      <cc:work rdf:about="">
        <dc:format>image/svg+xml</dc:format>
        <dc:type rdf:resource="http://purl.org/dc/dcmitype/StillImage"></dc:type>
        <dc:title></dc:title>
      </cc:work>
    </rdf:rdf>
  </metadata>
  <g inkscape:label="レイヤー 1" inkscape:groupmode="layer" id="layer1" transform="translate(-0.41123853,-0.48221288)" style="display:inline">
    <g aria-label="SHINYA" style="font-style:normal;font-variant:normal;font-weight:800;font-stretch:extra-condensed;font-size:10.58333302px;line-height:1.25;font-family:'Saira ExtraCondensed ExtraBold';-inkscape-font-specification:'Saira ExtraCondensed ExtraBold, Ultra-Bold Extra-Condensed';letter-spacing:0px;word-spacing:0px;fill:#999999;fill-opacity:0;stroke:#999999;stroke-width:0.26458332;stroke-opacity:1" id="text3715" transform="translate(-11.339286,-10.299851)">
      <g aria-label="SHINYA" style="font-style:normal;font-variant:normal;font-weight:normal;font-stretch:normal;font-size:10.58333302px;line-height:1.25;font-family:'Saira ExtraCondensed ExtraBold';-inkscape-font-specification:'Saira ExtraCondensed ExtraBold, ';letter-spacing:0px;word-spacing:0px;fill:#999999;fill-opacity:0;stroke:#999999;stroke-width:0.07000434;stroke-opacity:1" id="text3957">
        <path d="m 13.412108,18.23273 q -0.359834,0 -0.804333,-0.05292 -0.433917,-0.05292 -0.762,-0.137584 v -1.195916 q 0.687916,0.0635 1.174749,0.0635 0.296334,0 0.433917,-0.02117 0.137583,-0.03175 0.211667,-0.127 0.0635,-0.09525 0.08467,-0.243417 0.03175,-0.15875 0.03175,-0.423333 0,-0.423333 -0.03175,-0.592667 -0.03175,-0.169333 -0.148166,-0.243416 -0.105834,-0.08467 -0.391584,-0.148167 L 12.438441,14.93073 q -0.381,-0.08467 -0.53975,-0.5715 -0.148166,-0.486833 -0.148166,-1.36525 0,-0.910166 0.22225,-1.386416 0.232833,-0.486833 0.635,-0.656167 0.402166,-0.169333 1.026583,-0.169333 0.508,0 0.899583,0.07408 0.391583,0.0635 0.47625,0.105834 v 1.2065 q -0.04233,-0.02117 -0.328083,-0.04233 -0.275167,-0.02117 -0.624417,-0.02117 -0.328083,0 -0.497417,0.03175 -0.15875,0.02117 -0.22225,0.116416 -0.08467,0.08467 -0.116416,0.243417 -0.02117,0.148166 -0.02117,0.4445 0,0.3175 0.02117,0.465666 0.03175,0.148167 0.105833,0.22225 0.07408,0.0635 0.254,0.105834 l 0.66675,0.15875 q 0.306917,0.07408 0.518583,0.232833 0.22225,0.15875 0.34925,0.550333 0.127,0.381 0.127,1.164167 0,1.026583 -0.22225,1.545167 -0.211666,0.518583 -0.592666,0.687916 -0.381,0.15875 -1.016,0.15875 z" style="fill:#999999;fill-opacity:0;stroke:#999999;stroke-width:0.07000434;stroke-opacity:1" id="path8467" class="BOZWgFXj_0"></path>
        <path d="m 18.165513,18.148064 v -2.973917 h -0.867834 v 2.973917 h -1.449916 v -7.281333 h 1.449916 v 2.920999 h 0.867834 v -2.920999 h 1.4605 v 7.281333 z" style="fill:#999999;fill-opacity:0;stroke:#999999;stroke-width:0.07000434;stroke-opacity:1" id="path8469" class="BOZWgFXj_1"></path>
        <path d="m 20.4573,18.148064 v -7.281333 h 1.4605 v 7.281333 z" style="fill:#999999;fill-opacity:0;stroke:#999999;stroke-width:0.07000434;stroke-opacity:1" id="path8471" class="BOZWgFXj_2"></path>
        <path d="M 25.302317,18.148064 24.1699,14.496814 h -0.04233 v 3.65125 h -1.375833 v -7.281333 h 1.344083 l 1.037166,3.301999 h 0.05292 v -3.301999 h 1.386417 v 7.281333 z" style="fill:#999999;fill-opacity:0;stroke:#999999;stroke-width:0.07000434;stroke-opacity:1" id="path8473" class="BOZWgFXj_3"></path>
        <path d="m 28.355112,18.148064 v -2.529417 l -1.386416,-4.751916 h 1.4605 l 0.645583,3.153833 h 0.105833 l 0.60325,-3.153833 h 1.418167 l -1.386417,4.751916 v 2.529417 z" style="fill:#999999;fill-opacity:0;stroke:#999999;stroke-width:0.07000434;stroke-opacity:1" id="path8475" class="BOZWgFXj_4"></path>
        <path d="M 33.632557,18.148064 33.45264,16.698147 h -1.090083 l -0.179917,1.449917 h -1.449916 l 1.090083,-7.281333 h 2.19075 l 1.090083,7.281333 z M 32.94464,12.295481 h -0.07408 l -0.370417,3.122083 h 0.814917 z" style="fill:#999999;fill-opacity:0;stroke:#999999;stroke-width:0.07000434;stroke-opacity:1" id="path8477" class="BOZWgFXj_5"></path>
      </g>
    </g>
  </g>
<style data-made-with="vivus-instant">.BOZWgFXj_0{stroke-dasharray:26 28;stroke-dashoffset:27;animation:BOZWgFXj_draw 3000ms ease-in-out 0ms forwards;}.BOZWgFXj_1{stroke-dasharray:34 36;stroke-dashoffset:35;animation:BOZWgFXj_draw 3000ms ease-in-out 0ms forwards;}.BOZWgFXj_2{stroke-dasharray:18 20;stroke-dashoffset:19;animation:BOZWgFXj_draw 3000ms ease-in-out 0ms forwards;}.BOZWgFXj_3{stroke-dasharray:35 37;stroke-dashoffset:36;animation:BOZWgFXj_draw 3000ms ease-in-out 0ms forwards;}.BOZWgFXj_4{stroke-dasharray:26 28;stroke-dashoffset:27;animation:BOZWgFXj_draw 3000ms ease-in-out 0ms forwards;}.BOZWgFXj_5{stroke-dasharray:32 34;stroke-dashoffset:33;animation:BOZWgFXj_draw 3000ms ease-in-out 0ms forwards;}@keyframes BOZWgFXj_draw{100%{stroke-dashoffset:0;}}@keyframes BOZWgFXj_fade{0%{stroke-opacity:1;}94.44444444444444%{stroke-opacity:1;}100%{stroke-opacity:0;}}</style></svg>
